<?xml version="1.0" standalone="no"?><svg xmlns="http://www.w3.org/2000/svg" viewBox="0 0 1440 320"><path fill="#f3f4f5" fill-opacity="1" d="M0,160L0,128L90,128L90,288L180,288L180,256L270,256L270,0L360,0L360,160L450,160L450,256L540,256L540,160L630,160L630,96L720,96L720,128L810,128L810,256L900,256L900,128L990,128L990,288L1080,288L1080,288L1170,288L1170,128L1260,128L1260,32L1350,32L1350,64L1440,64L1440,0L1350,0L1350,0L1260,0L1260,0L1170,0L1170,0L1080,0L1080,0L990,0L990,0L900,0L900,0L810,0L810,0L720,0L720,0L630,0L630,0L540,0L540,0L450,0L450,0L360,0L360,0L270,0L270,0L180,0L180,0L90,0L90,0L0,0L0,0Z"></path></svg>